<svg width="256" height="72" viewBox="0 0 256 72" fill="none" xmlns="http://www.w3.org/2000/svg">
<path d="M124.368 17.2L128.365 36.2764L132.841 17.272L138.765 17.191L143.146 36.4024L147.202 17.2H155.059L147.202 47.0564H140.214L135.787 27.9755L131.298 46.9349L124.323 47.0654L116.511 17.2H124.368Z" fill="#142338"/>
<path d="M83.7563 38.1346C76.9719 37.4912 73.6906 30.3061 75.6458 24.2592C79.3028 12.9394 97.909 14.4691 98.796 26.9182C99.226 32.9741 93.9306 38.9624 90.6267 43.718C89.8618 44.8203 89.2282 46.0126 88.3728 47.0564H79.4521L86.0645 38.0761C85.9604 37.8692 85.6979 38.1391 85.63 38.1391C85.0371 38.1391 84.3311 38.1931 83.7608 38.1391L83.7563 38.1346ZM86.2863 23.4269C83.6069 23.8138 82.0093 26.7653 83.272 29.2038C84.7882 32.1282 89.2191 32.0383 90.6176 29.0913C92.0162 26.1444 89.4002 22.977 86.2863 23.4269Z" fill="#142338"/>
<path d="M163.293 17.1996V26.4903C163.555 26.2969 163.659 25.9414 163.913 25.6805C166.221 23.3049 171.521 23.3589 174.065 25.2756C175.445 26.3149 177.269 29.0323 177.269 30.769V47.0604H170.534V34.2379C170.534 33.3245 170.177 32.0873 169.588 31.3359C168.09 29.4238 164.356 29.9952 163.542 32.3752C163.487 32.5282 163.297 33.275 163.297 33.3695V47.0604H156.436V17.1996H163.297H163.293Z" fill="#142338"/>
<path d="M202.462 37.8881H185.743C185.711 39.7552 187.807 41.6718 189.576 41.9463C191.989 42.3197 193.116 41.8158 194.727 40.1781C194.831 40.0747 194.831 39.8722 194.849 39.8722H201.959C199.701 45.4466 194.424 48.7535 188.314 47.5387C176.071 45.1047 175.876 27.2071 187.761 24.2287C196.383 22.0646 203.955 29.3532 202.457 37.8926L202.462 37.8881ZM195.849 33.3079C194.487 28.3769 187.087 28.3679 185.743 33.3079H195.849Z" fill="#142338"/>
<path d="M227.789 37.8864H210.948C211.066 38.7188 211.355 39.4566 211.88 40.118C213.958 42.7275 218.398 42.7365 220.24 39.8706H227.164C226.445 41.8862 224.838 44.1312 223.105 45.4405C218.013 49.2918 210.509 48.239 206.653 43.1999C200.303 34.908 206.73 23.0572 217.244 23.8896C224.182 24.4385 228.866 31.2142 227.789 37.8864ZM221.05 33.3063C219.932 28.3617 212.134 28.4067 211.07 33.3063H221.05Z" fill="#142338"/>
<path d="M244.186 40.2428C244.512 40.7872 244.567 41.2686 245.055 41.7365C246.707 43.3202 250.21 41.75 248.921 39.7569C248.029 38.3756 242.824 37.2553 240.968 36.135C235.107 32.5897 238.158 25.553 243.974 24.1763C249.138 22.957 254.899 25.1706 255.356 30.9565H248.622C248.563 28.5765 244.214 28.8149 244.779 31.24C245.096 32.6032 248.572 33.1476 249.717 33.521C252.903 34.5513 255.768 35.9461 255.986 39.6849C256.547 49.3895 240.525 50.7393 237.927 42.1324C237.837 41.8265 237.569 40.7602 237.565 40.5037C237.565 40.3552 237.579 40.3417 237.701 40.2473H244.186V40.2428Z" fill="#142338"/>
<path d="M113.389 17.1996V47.0559H105.654V23.7638H99.5398C99.4493 23.3454 99.8928 23.2689 100.169 22.963C101.934 21.0059 103.717 19.0532 105.591 17.1996H113.389Z" fill="#142338"/>
<path d="M236.273 17.1996H229.412V47.0559H236.273V17.1996Z" fill="#142338"/>
<path d="M32.9852 65.5796C51.2024 65.5796 65.9703 50.8991 65.9703 32.7898C65.9703 14.6805 51.2024 0 32.9852 0C14.768 0 0 14.6805 0 32.7898C0 50.8991 14.768 65.5796 32.9852 65.5796Z" fill="#1166FE"/>
<path d="M58.5458 35.5814L41.3472 64.5154C38.6769 65.2127 35.8708 65.5817 32.9832 65.5817C32.8791 65.5817 32.766 65.5817 32.6619 65.5772L50.4941 35.5814H58.5549H58.5458Z" fill="white"/>
<path d="M30.1217 12.9875C20.5584 12.9875 12.8054 20.6991 12.8054 30.2058C12.8054 39.7125 20.5584 47.4195 30.1217 47.4195C30.7599 47.4195 31.389 47.3835 32.009 47.316L18.7389 69.6498C20.9521 70.4956 23.2558 71.1525 25.641 71.5934L44.8582 39.2626L45.1524 38.7722L45.2113 38.6687C45.7725 37.6924 46.2341 36.6576 46.5871 35.5733C47.1484 33.8861 47.4471 32.0774 47.4471 30.2058C47.4471 20.6991 39.6896 12.9875 30.1262 12.9875H30.1217ZM30.1217 40.3469C24.4914 40.3469 19.9202 35.8072 19.9202 30.2058C19.9202 24.6043 24.4869 20.0602 30.1217 20.0602C35.7565 20.0602 40.3277 24.5998 40.3277 30.2058C40.3277 35.8117 35.7611 40.3469 30.1217 40.3469Z" fill="white"/>
</svg>
