<svg width="512" height="512" viewBox="0 0 512 512" fill="none" xmlns="http://www.w3.org/2000/svg">
<mask id="mask0_715_235" style="mask-type:alpha" maskUnits="userSpaceOnUse" x="6" y="6" width="500" height="500">
<path d="M256 506C394.071 506 506 394.071 506 256C506 117.929 394.071 6 256 6C117.929 6 6 117.929 6 256C6 394.071 117.929 506 256 506Z" fill="#1166FE"/>
</mask>
<g mask="url(#mask0_715_235)">
<path d="M256 506C394.071 506 506 394.071 506 256C506 117.929 394.071 6 256 6C117.929 6 6 117.929 6 256C6 394.071 117.929 506 256 506Z" fill="#1166FE"/>
<path d="M449.728 278.677L319.377 497.973C299.138 503.258 277.87 506.054 255.985 506.054C255.196 506.054 254.338 506.054 253.549 506.02L388.703 278.677H449.797H449.728Z" fill="white"/>
<path d="M234.297 104.435C161.815 104.435 103.054 162.882 103.054 234.935C103.054 306.988 161.815 365.401 234.297 365.401C239.134 365.401 243.902 365.128 248.602 364.617L148.025 533.888C164.8 540.299 182.26 545.277 200.337 548.619L345.988 303.578L348.218 299.861L348.663 299.077C352.917 291.677 356.416 283.834 359.092 275.616C363.345 262.829 365.609 249.121 365.609 234.935C365.609 162.882 306.814 104.435 234.332 104.435H234.297ZM234.297 311.796C191.624 311.796 156.978 277.389 156.978 234.935C156.978 192.481 191.59 158.04 234.297 158.04C277.005 158.04 311.651 192.447 311.651 234.935C311.651 277.423 277.039 311.796 234.297 311.796Z" fill="white"/>
</g>
</svg>
